<svg width="100" height="32" viewBox="0 0 100 32" fill="none" xmlns="http://www.w3.org/2000/svg">
<circle cx="16" cy="16" r="14.5" stroke="#A4E320" stroke-width="3"/>
<circle cx="16" cy="16" r="7" fill="#A4E320"/>
<path d="M38.24 28V4.96H47.376C48.9333 4.96 50.208 5.27467 51.2 5.904C52.2027 6.52267 52.944 7.31733 53.424 8.288C53.9147 9.25867 54.16 10.2613 54.16 11.296C54.16 12.5653 53.856 13.6427 53.248 14.528C52.6507 15.4133 51.8347 16.0107 50.8 16.32V15.52C52.2507 15.8507 53.3493 16.5387 54.096 17.584C54.8533 18.6293 55.232 19.8187 55.232 21.152C55.232 22.5173 54.9707 23.712 54.448 24.736C53.9253 25.76 53.1467 26.56 52.112 27.136C51.088 27.712 49.8187 28 48.304 28H38.24ZM42.144 24.368H47.824C48.496 24.368 49.0987 24.2347 49.632 23.968C50.1653 23.6907 50.5813 23.3067 50.88 22.816C51.1893 22.3147 51.344 21.7227 51.344 21.04C51.344 20.4213 51.2107 19.8667 50.944 19.376C50.6773 18.8853 50.288 18.496 49.776 18.208C49.264 17.9093 48.6507 17.76 47.936 17.76H42.144V24.368ZM42.144 14.16H47.328C47.8827 14.16 48.3787 14.0533 48.816 13.84C49.2533 13.6267 49.6 13.312 49.856 12.896C50.112 12.48 50.24 11.968 50.24 11.36C50.24 10.56 49.984 9.89333 49.472 9.36C48.96 8.82667 48.2453 8.56 47.328 8.56H42.144V14.16ZM58.7475 8.096V4.56H62.6035V8.096H58.7475ZM58.7475 28V10.72H62.6035V28H58.7475ZM71.0763 28L65.7963 10.688L69.5723 10.72L72.9483 21.808L76.3723 10.72H79.6203L83.0283 21.808L86.4203 10.72H90.1963L84.9163 28H81.9083L77.9883 16.112L74.0843 28H71.0763ZM93.4038 8.096V4.56H97.2598V8.096H93.4038ZM93.4038 28V10.72H97.2598V28H93.4038Z" fill="#A4E320"/>
</svg>
