<svg width="42" height="42" viewBox="0 0 42 42" fill="none" xmlns="http://www.w3.org/2000/svg">
<rect width="42" height="42" rx="2.625" fill="#DAF4A4"/>
<path d="M32.8125 30.1875H35.4375V32.8125H6.5625V30.1875H9.1875V10.5C9.1875 10.1519 9.32578 9.81806 9.57192 9.57192C9.81806 9.32578 10.1519 9.1875 10.5 9.1875H23.625C23.9731 9.1875 24.3069 9.32578 24.5531 9.57192C24.7992 9.81806 24.9375 10.1519 24.9375 10.5V30.1875H27.5625V17.0625H31.5C31.8481 17.0625 32.1819 17.2008 32.4281 17.4469C32.6742 17.6931 32.8125 18.0269 32.8125 18.375V30.1875ZM14.4375 19.6875V22.3125H19.6875V19.6875H14.4375ZM14.4375 14.4375V17.0625H19.6875V14.4375H14.4375Z" fill="#003034"/>
</svg>
