<svg width="42" height="42" viewBox="0 0 42 42" fill="none" xmlns="http://www.w3.org/2000/svg">
<rect width="42" height="42" rx="2.625" fill="#DAF4A4"/>
<g clip-path="url(#clip0_686_4044)">
<path d="M29.1734 27.2789C25.5021 25.9415 24.3285 24.8126 24.3285 22.3953C24.3285 20.9447 25.5314 20.0045 25.9414 18.7613C26.3515 17.518 26.5887 16.0461 26.7859 14.9753C26.9831 13.9046 27.0614 13.4904 27.1687 12.3496C27.2998 10.9257 26.3466 7.25 21.25 7.25C16.1549 7.25 15.1987 10.9257 15.3328 12.3496C15.44 13.4904 15.5188 13.9046 15.7155 14.9753C15.9123 16.046 16.1472 17.5179 16.557 18.7613C16.9668 20.0046 18.1714 20.9447 18.1714 22.3953C18.1714 24.8126 16.9978 25.9415 13.3265 27.2789C9.64192 28.6194 7.25 29.9412 7.25 30.875V35.25H35.25V30.875C35.25 29.9427 32.8566 28.6209 29.1734 27.2789Z" fill="#003034"/>
</g>
<defs>
<clipPath id="clip0_686_4044">
<rect width="28" height="28" fill="white" transform="translate(7.25 7.25)"/>
</clipPath>
</defs>
</svg>
