<svg width="48" height="48" viewBox="0 0 48 48" fill="none" xmlns="http://www.w3.org/2000/svg">
<circle cx="24" cy="24" r="24" fill="#A4E320"/>
<path d="M19.5 15.5C19.1022 15.5 18.7206 15.658 18.4393 15.9393C18.158 16.2206 18 16.6022 18 17C18 17.3978 18.158 17.7794 18.4393 18.0607C18.7206 18.342 19.1022 18.5 19.5 18.5C19.8978 18.5 20.2794 18.342 20.5607 18.0607C20.842 17.7794 21 17.3978 21 17C21 16.6022 20.842 16.2206 20.5607 15.9393C20.2794 15.658 19.8978 15.5 19.5 15.5ZM16.5 17C16.5 16.2044 16.8161 15.4413 17.3787 14.8787C17.9413 14.3161 18.7044 14 19.5 14C20.2956 14 21.0587 14.3161 21.6213 14.8787C22.1839 15.4413 22.5 16.2044 22.5 17C22.5 17.7956 22.1839 18.5587 21.6213 19.1213C21.0587 19.6839 20.2956 20 19.5 20C18.7044 20 17.9413 19.6839 17.3787 19.1213C16.8161 18.5587 16.5 17.7956 16.5 17ZM15.768 21C14.79 21 14 21.791 14 22.768V23.128C14 23.335 14 24.536 14.7 25.703C15.248 26.613 16.177 27.43 17.675 27.796C17.8802 27.2506 18.2517 26.7836 18.737 26.461C17.134 26.29 16.376 25.578 15.987 24.931C15.503 24.125 15.5 23.267 15.5 23.125V22.768C15.5 22.62 15.62 22.5 15.768 22.5H20.03C20.0961 21.9712 20.2678 21.4611 20.535 21H15.768ZM27.465 21C27.726 21.452 27.902 21.959 27.969 22.5H32.232C32.38 22.5 32.5 22.62 32.5 22.768V23.125C32.5 23.267 32.497 24.125 32.013 24.93C31.624 25.578 30.866 26.29 29.263 26.461C29.743 26.781 30.119 27.247 30.325 27.796C31.823 27.43 32.752 26.613 33.299 25.703C34 24.536 34 23.336 34 23.127V22.767C34 21.792 33.209 21 32.232 21H27.465ZM27 17C27 16.6022 27.158 16.2206 27.4393 15.9393C27.7206 15.658 28.1022 15.5 28.5 15.5C28.8978 15.5 29.2794 15.658 29.5607 15.9393C29.842 16.2206 30 16.6022 30 17C30 17.3978 29.842 17.7794 29.5607 18.0607C29.2794 18.342 28.8978 18.5 28.5 18.5C28.1022 18.5 27.7206 18.342 27.4393 18.0607C27.158 17.7794 27 17.3978 27 17ZM28.5 14C27.7044 14 26.9413 14.3161 26.3787 14.8787C25.8161 15.4413 25.5 16.2044 25.5 17C25.5 17.7956 25.8161 18.5587 26.3787 19.1213C26.9413 19.6839 27.7044 20 28.5 20C29.2956 20 30.0587 19.6839 30.6213 19.1213C31.1839 18.5587 31.5 17.7956 31.5 17C31.5 16.2044 31.1839 15.4413 30.6213 14.8787C30.0587 14.3161 29.2956 14 28.5 14ZM24 21.5C23.803 21.5 23.608 21.5388 23.426 21.6142C23.244 21.6896 23.0786 21.8001 22.9393 21.9393C22.8001 22.0786 22.6896 22.244 22.6142 22.426C22.5388 22.608 22.5 22.803 22.5 23C22.5 23.197 22.5388 23.392 22.6142 23.574C22.6896 23.756 22.8001 23.9214 22.9393 24.0607C23.0786 24.1999 23.244 24.3104 23.426 24.3858C23.608 24.4612 23.803 24.5 24 24.5C24.3978 24.5 24.7794 24.342 25.0607 24.0607C25.342 23.7794 25.5 23.3978 25.5 23C25.5 22.6022 25.342 22.2206 25.0607 21.9393C24.7794 21.658 24.3978 21.5 24 21.5ZM21 23C21 22.2044 21.3161 21.4413 21.8787 20.8787C22.4413 20.3161 23.2044 20 24 20C24.7956 20 25.5587 20.3161 26.1213 20.8787C26.6839 21.4413 27 22.2044 27 23C27 23.7956 26.6839 24.5587 26.1213 25.1213C25.5587 25.6839 24.7956 26 24 26C23.2044 26 22.4413 25.6839 21.8787 25.1213C21.3161 24.5587 21 23.7956 21 23ZM18.5 28.768C18.5 27.79 19.291 27 20.268 27H27.732C28.709 27 29.5 27.791 29.5 28.768V29.128C29.5 29.335 29.5 30.536 28.8 31.703C28.057 32.937 26.613 34 24 34C21.387 34 19.942 32.937 19.2 31.703C18.5 30.536 18.5 29.336 18.5 29.127V28.768ZM20.268 28.5C20.2328 28.5 20.198 28.5069 20.1654 28.5204C20.1329 28.5339 20.1034 28.5536 20.0785 28.5785C20.0536 28.6034 20.0339 28.6329 20.0204 28.6654C20.0069 28.698 20 28.7328 20 28.768V29.125C20 29.267 20.003 30.125 20.487 30.93C20.933 31.673 21.864 32.5 24 32.5C26.136 32.5 27.067 31.673 27.513 30.93C27.997 30.125 28 29.267 28 29.125V28.768C28 28.6969 27.9718 28.6288 27.9215 28.5785C27.8712 28.5282 27.8031 28.5 27.732 28.5H20.268Z" fill="#003034"/>
</svg>
