<svg width="20" height="20" viewBox="0 0 20 20" fill="none" xmlns="http://www.w3.org/2000/svg">
<path d="M9.49935 9.58341C8.94682 9.58341 8.41691 9.36392 8.02621 8.97322C7.63551 8.58252 7.41602 8.05262 7.41602 7.50008C7.41602 6.94755 7.63551 6.41764 8.02621 6.02694C8.41691 5.63624 8.94682 5.41675 9.49935 5.41675C10.0519 5.41675 10.5818 5.63624 10.9725 6.02694C11.3632 6.41764 11.5827 6.94755 11.5827 7.50008C11.5827 7.77367 11.5288 8.04458 11.4241 8.29734C11.3194 8.5501 11.1659 8.77977 10.9725 8.97322C10.779 9.16668 10.5494 9.32013 10.2966 9.42483C10.0438 9.52953 9.77294 9.58341 9.49935 9.58341ZM9.49935 1.66675C7.95225 1.66675 6.46852 2.28133 5.37456 3.37529C4.2806 4.46925 3.66602 5.95299 3.66602 7.50008C3.66602 11.8751 9.49935 18.3334 9.49935 18.3334C9.49935 18.3334 15.3327 11.8751 15.3327 7.50008C15.3327 5.95299 14.7181 4.46925 13.6241 3.37529C12.5302 2.28133 11.0464 1.66675 9.49935 1.66675Z" fill="#FFAF1A"/>
</svg>
