<svg width="20" height="20" viewBox="0 0 20 20" fill="none" xmlns="http://www.w3.org/2000/svg">
<path d="M4.99967 18.3333C4.54134 18.3333 4.14912 18.1702 3.82301 17.8441C3.4969 17.518 3.33356 17.1255 3.33301 16.6666V8.33325C3.33301 7.87492 3.49634 7.4827 3.82301 7.15659C4.14967 6.83047 4.5419 6.66714 4.99967 6.66659H5.83301V4.99992C5.83301 3.84714 6.2394 2.86464 7.05217 2.05242C7.86495 1.2402 8.84745 0.833808 9.99967 0.833252C11.1525 0.833252 12.1352 1.23964 12.948 2.05242C13.7608 2.8652 14.1669 3.8477 14.1663 4.99992V6.66659H14.9997C15.458 6.66659 15.8505 6.82992 16.1772 7.15659C16.5038 7.48325 16.6669 7.87547 16.6663 8.33325V16.6666C16.6663 17.1249 16.5033 17.5174 16.1772 17.8441C15.8511 18.1708 15.4586 18.3338 14.9997 18.3333H4.99967ZM4.99967 16.6666H14.9997V8.33325H4.99967V16.6666ZM9.99967 14.1666C10.458 14.1666 10.8505 14.0035 11.1772 13.6774C11.5038 13.3513 11.6669 12.9588 11.6663 12.4999C11.6663 12.0416 11.5033 11.6494 11.1772 11.3233C10.8511 10.9971 10.4586 10.8338 9.99967 10.8333C9.54134 10.8333 9.14912 10.9966 8.82301 11.3233C8.4969 11.6499 8.33356 12.0421 8.33301 12.4999C8.33301 12.9583 8.49634 13.3508 8.82301 13.6774C9.14967 14.0041 9.5419 14.1671 9.99967 14.1666ZM7.49967 6.66659H12.4997V4.99992C12.4997 4.30547 12.2566 3.7152 11.7705 3.22909C11.2844 2.74297 10.6941 2.49992 9.99967 2.49992C9.30523 2.49992 8.71495 2.74297 8.22884 3.22909C7.74273 3.7152 7.49967 4.30547 7.49967 4.99992V6.66659Z" fill="#A4E220"/>
</svg>
