<svg id="Layer_1" data-name="Layer 1" xmlns="http://www.w3.org/2000/svg" viewBox="0 0 97.51 17.77"><defs><style>.cls-1{fill:#c1d830;}</style></defs><path class="cls-1" d="M13,7.5a.09.09,0,0,0,0-.07,7.33,7.33,0,0,0-6.4-.73A8.3,8.3,0,0,0,3,9.47a21.63,21.63,0,0,0-1.38,2.29,1.8,1.8,0,0,0-.18.64c0,.37,0,.81.65.52a1.08,1.08,0,0,0,.23-.14,1.68,1.68,0,0,0,.46-.57A12.2,12.2,0,0,1,4.61,9.55a5.41,5.41,0,0,1,4-1.6.6.6,0,0,1,.24,0c.19.07.44.24.18.59a.73.73,0,0,1-.19.2c-.39.32-2.19,1.86-1.14,2.68a.07.07,0,0,0,.09,0c.09-.06.36-.25,1.09-.83h0a35.2,35.2,0,0,0,4-3.1.08.08,0,0,0,0,0Z" transform="translate(-1.19 -6.26)"/><path class="cls-1" d="M7.16,11.57s.7.33-.08,1.36a1.71,1.71,0,0,1-.18.2c-.22.18-.73.6-1,.78l-.1.08c-.15.14-.47.51,0,.71l.11,0a9,9,0,0,0,1.16,0,7.14,7.14,0,0,0,1.17-.11c.38-.08,1-.34,2.17-1.54a4.83,4.83,0,0,0,.37-.42c.36-.48,1.06-1.39,1.24-1.6l.07-.06c.16-.15.83-.56.84.25a.83.83,0,0,1-.12.44,12.61,12.61,0,0,1-2.59,3.16,8,8,0,0,1-3.88,1.51A8.39,8.39,0,0,0,4.13,17h0s-.52,1.64.65,5.1a0,0,0,0,1,0,0C4.5,22.34,2.3,24,2.1,24s-.21-.19-.87-1.17a.1.1,0,0,1,0-.07l.3-6.49a3.11,3.11,0,0,1,2.22-2.77h0a25.35,25.35,0,0,0,3.45-1.95Z" transform="translate(-1.19 -6.26)"/><path class="cls-1" d="M18.21,17.47v4.65H16.77V9.82h3.37a4.5,4.5,0,0,1,3.06,1,3.45,3.45,0,0,1,1.08,2.71,3.75,3.75,0,0,1-1.2,2.87,4.61,4.61,0,0,1-3.25,1.11Zm0-6.34v5h1.5A3.39,3.39,0,0,0,22,15.49a2.44,2.44,0,0,0,.78-1.93q0-2.43-2.88-2.43Z" transform="translate(-1.19 -6.26)"/><path class="cls-1" d="M33.47,18.08h-6.2a3.22,3.22,0,0,0,.79,2.26,2.68,2.68,0,0,0,2.07.8,4.28,4.28,0,0,0,2.73-1v1.32a5.13,5.13,0,0,1-3.06.84,3.75,3.75,0,0,1-2.93-1.19,4.9,4.9,0,0,1-1.06-3.37A4.83,4.83,0,0,1,27,14.42a3.74,3.74,0,0,1,2.89-1.29,3.31,3.31,0,0,1,2.66,1.12,4.62,4.62,0,0,1,.95,3.09ZM32,16.89a2.89,2.89,0,0,0-.58-1.9,2,2,0,0,0-1.61-.67,2.25,2.25,0,0,0-1.69.71,3.23,3.23,0,0,0-.86,1.86Z" transform="translate(-1.19 -6.26)"/><path class="cls-1" d="M42.88,22.12H41.47V17.06c0-1.83-.68-2.74-2-2.74a2.22,2.22,0,0,0-1.73.79,3,3,0,0,0-.7,2v5H35.59v-13H37V14.8h0a3.21,3.21,0,0,1,2.88-1.67c2,0,3,1.2,3,3.58Z" transform="translate(-1.19 -6.26)"/><path class="cls-1" d="M46.93,22.12h-1.4v-13h1.4Z" transform="translate(-1.19 -6.26)"/><path class="cls-1" d="M56.06,22.12h-1.4V20.75h0a2.94,2.94,0,0,1-2.7,1.57,2.89,2.89,0,0,1-2.05-.69,2.42,2.42,0,0,1-.74-1.84c0-1.64,1-2.6,2.9-2.87l2.63-.37c0-1.49-.61-2.23-1.81-2.23A4.31,4.31,0,0,0,50,15.4V14a5.41,5.41,0,0,1,3-.83c2.06,0,3.09,1.1,3.09,3.28Zm-1.4-4.44L52.54,18a3.42,3.42,0,0,0-1.47.48,1.37,1.37,0,0,0-.5,1.23A1.32,1.32,0,0,0,51,20.73a1.76,1.76,0,0,0,1.22.41A2.26,2.26,0,0,0,54,20.41a2.65,2.65,0,0,0,.68-1.86Z" transform="translate(-1.19 -6.26)"/><path class="cls-1" d="M58.33,21.62v-1.7a3.16,3.16,0,0,0,.7.47,6.47,6.47,0,0,0,1.76.56,5.16,5.16,0,0,0,.84.08,3.28,3.28,0,0,0,2-.49,1.66,1.66,0,0,0,.66-1.42,1.75,1.75,0,0,0-.22-.87,2.54,2.54,0,0,0-.61-.67,5.5,5.5,0,0,0-.91-.58l-1.13-.59q-.65-.33-1.2-.66a4.67,4.67,0,0,1-1-.74,3,3,0,0,1-.65-.91,2.79,2.79,0,0,1-.24-1.2,2.85,2.85,0,0,1,.37-1.46,3.26,3.26,0,0,1,1-1,4.36,4.36,0,0,1,1.37-.6,7.32,7.32,0,0,1,4.21.24v1.62a4.74,4.74,0,0,0-2.79-.76,5.11,5.11,0,0,0-.95.1,2.82,2.82,0,0,0-.84.32,2,2,0,0,0-.6.58,1.54,1.54,0,0,0-.23.85,1.74,1.74,0,0,0,.18.82,1.9,1.9,0,0,0,.52.62,4.6,4.6,0,0,0,.83.55l1.14.59a13.44,13.44,0,0,1,1.25.68,6.09,6.09,0,0,1,1,.8,3.48,3.48,0,0,1,.7,1A2.63,2.63,0,0,1,65.78,19a3.05,3.05,0,0,1-.36,1.54,3,3,0,0,1-1,1,4.33,4.33,0,0,1-1.39.57,7.51,7.51,0,0,1-1.67.17,7,7,0,0,1-.72,0c-.28,0-.57-.08-.87-.14a7,7,0,0,1-.85-.22A2.65,2.65,0,0,1,58.33,21.62Z" transform="translate(-1.19 -6.26)"/><path class="cls-1" d="M72.11,22a2.74,2.74,0,0,1-1.31.28c-1.54,0-2.31-.86-2.31-2.57v-5.2H67v-1.2h1.51V11.2l1.41-.46v2.6h2.21v1.2H69.9v4.95a2,2,0,0,0,.3,1.26,1.19,1.19,0,0,0,1,.37,1.45,1.45,0,0,0,.92-.29Z" transform="translate(-1.19 -6.26)"/><path class="cls-1" d="M80.27,22.12h-1.4V20.75h0a2.94,2.94,0,0,1-2.7,1.57,2.89,2.89,0,0,1-2-.69,2.38,2.38,0,0,1-.74-1.84c0-1.64,1-2.6,2.89-2.87l2.64-.37c0-1.49-.61-2.23-1.81-2.23a4.35,4.35,0,0,0-2.87,1.08V14a5.46,5.46,0,0,1,3-.83c2.06,0,3.09,1.1,3.09,3.28Zm-1.4-4.44L76.75,18a3.52,3.52,0,0,0-1.48.48,1.39,1.39,0,0,0-.49,1.23,1.32,1.32,0,0,0,.46,1.05,1.76,1.76,0,0,0,1.22.41,2.24,2.24,0,0,0,1.72-.73,2.61,2.61,0,0,0,.69-1.86Z" transform="translate(-1.19 -6.26)"/><path class="cls-1" d="M90.21,22.12h-2L84.36,17.9h0v4.22H82.92v-13h1.41v8.24h0l3.69-4h1.84l-4.07,4.23Z" transform="translate(-1.19 -6.26)"/><path class="cls-1" d="M98.7,18.08H92.51a3.26,3.26,0,0,0,.78,2.26,2.71,2.71,0,0,0,2.08.8,4.28,4.28,0,0,0,2.73-1v1.32a5.13,5.13,0,0,1-3.06.84,3.73,3.73,0,0,1-2.93-1.19,4.9,4.9,0,0,1-1.06-3.37,4.83,4.83,0,0,1,1.16-3.34,3.72,3.72,0,0,1,2.88-1.29,3.32,3.32,0,0,1,2.67,1.12,4.62,4.62,0,0,1,.94,3.09Zm-1.44-1.19a2.89,2.89,0,0,0-.58-1.9,2,2,0,0,0-1.61-.67,2.25,2.25,0,0,0-1.69.71,3.23,3.23,0,0,0-.86,1.86Z" transform="translate(-1.19 -6.26)"/></svg>