<svg width="20" height="21" viewBox="0 0 20 21" fill="none" xmlns="http://www.w3.org/2000/svg">
<g clip-path="url(#clip0_447_577)">
<mask id="mask0_447_577" style="mask-type:luminance" maskUnits="userSpaceOnUse" x="0" y="0" width="20" height="21">
<path d="M20 0.692383H0V20.6924H20V0.692383Z" fill="white"/>
</mask>
<g mask="url(#mask0_447_577)">
<path d="M10.0254 20.6924C9.70998 20.6924 9.44337 20.464 9.36699 20.158C9.12352 19.1827 8.65744 18.1455 7.96875 17.0466C7.15278 15.7271 5.98958 14.5032 4.47917 13.3747C3.16549 12.3818 1.85181 11.7047 0.538138 11.3435C0.227005 11.258 0 10.9821 0 10.6594C0 10.343 0.218273 10.0703 0.522473 9.98347C1.81045 9.61573 3.05122 9.01869 4.24479 8.19238C5.61632 7.23752 6.76215 6.09168 7.68229 4.75488C8.49629 3.56403 9.05507 2.38626 9.35863 1.22159C9.43815 0.916478 9.70676 0.692383 10.0221 0.692383C10.3409 0.692383 10.6114 0.921441 10.689 1.23071C10.8642 1.92892 11.138 2.64358 11.5104 3.37467C11.9792 4.27745 12.5781 5.1455 13.3073 5.97884C14.0538 6.79481 14.8872 7.53266 15.8073 8.19238C17.0097 9.04469 18.232 9.64349 19.4744 9.98878C19.7792 10.0735 20 10.3448 20 10.6611C20 10.9822 19.7725 11.2558 19.4629 11.3407C18.6754 11.5566 17.8648 11.9048 17.0313 12.3851C16.0243 12.9754 15.0868 13.6785 14.2187 14.4945C13.3507 15.2931 12.6389 16.1351 12.0833 17.0205C11.3933 18.1217 10.9267 19.1669 10.6837 20.1563C10.6083 20.4632 10.3413 20.6924 10.0254 20.6924Z" fill="#A4E320"/>
</g>
</g>
<defs>
<clipPath id="clip0_447_577">
<rect width="20" height="20" fill="white" transform="translate(0 0.692383)"/>
</clipPath>
</defs>
</svg>
