<svg width="49" height="48" viewBox="0 0 49 48" fill="none" xmlns="http://www.w3.org/2000/svg">
<circle cx="24.5" cy="24" r="24" fill="#A4E320"/>
<path d="M18.5 31.05L20.475 30.25C20.3083 29.7666 20.1543 29.275 20.013 28.775C19.8717 28.275 19.759 27.775 19.675 27.275L18.5 28.075V31.05ZM22.5 30H26.5C26.8 29.3333 27.0417 28.521 27.225 27.563C27.4083 26.605 27.5 25.6256 27.5 24.625C27.5 22.975 27.225 21.4126 26.675 19.938C26.125 18.4633 25.4 17.3256 24.5 16.525C23.6 17.325 22.875 18.4626 22.325 19.938C21.775 21.4133 21.5 22.9756 21.5 24.625C21.5 25.625 21.5917 26.6043 21.775 27.563C21.9583 28.5216 22.2 29.334 22.5 30ZM24.5 25C23.95 25 23.4793 24.8043 23.088 24.413C22.6967 24.0216 22.5007 23.5506 22.5 23C22.5 22.45 22.696 21.9793 23.088 21.588C23.48 21.1966 23.9507 21.0006 24.5 21C25.05 21 25.521 21.196 25.913 21.588C26.305 21.98 26.5007 22.4506 26.5 23C26.5 23.55 26.3043 24.021 25.913 24.413C25.5217 24.805 25.0507 25.0006 24.5 25ZM30.5 31.05V28.075L29.325 27.275C29.2417 27.775 29.1293 28.275 28.988 28.775C28.8467 29.275 28.6923 29.7666 28.525 30.25L30.5 31.05ZM24.5 13.975C26.15 15.175 27.396 16.7 28.238 18.55C29.08 20.4 29.5007 22.55 29.5 25L31.6 26.4C31.8833 26.5833 32.1043 26.825 32.263 27.125C32.4217 27.425 32.5007 27.7416 32.5 28.075V34L27.525 32H21.475L16.5 34V28.075C16.5 27.7416 16.5793 27.425 16.738 27.125C16.8967 26.825 17.1173 26.5833 17.4 26.4L19.5 25C19.5 22.55 19.921 20.4 20.763 18.55C21.605 16.7 22.8507 15.175 24.5 13.975Z" fill="#003034"/>
</svg>
