<svg width="48" height="48" viewBox="0 0 48 48" fill="none" xmlns="http://www.w3.org/2000/svg">
<circle cx="24" cy="24" r="24" fill="#A4E320"/>
<path d="M27.5 26H26.71L26.43 25.73C27.4439 24.554 28.0011 23.0527 28 21.5C28 20.2144 27.6188 18.9577 26.9046 17.8888C26.1903 16.8199 25.1752 15.9868 23.9874 15.4948C22.7997 15.0028 21.4928 14.8741 20.2319 15.1249C18.971 15.3757 17.8128 15.9948 16.9038 16.9038C15.9948 17.8128 15.3757 18.971 15.1249 20.2319C14.8741 21.4928 15.0028 22.7997 15.4948 23.9874C15.9868 25.1752 16.8199 26.1903 17.8888 26.9046C18.9577 27.6188 20.2144 28 21.5 28C23.11 28 24.59 27.41 25.73 26.43L26 26.71V27.5L31 32.49L32.49 31L27.5 26ZM21.5 26C19.01 26 17 23.99 17 21.5C17 19.01 19.01 17 21.5 17C23.99 17 26 19.01 26 21.5C26 23.99 23.99 26 21.5 26Z" fill="#003034"/>
</svg>
